<svg width="12" height="12" viewBox="0 0 12 12" fill="none" xmlns="http://www.w3.org/2000/svg">
<g clip-path="url(#clip0_939_109497)">
<path d="M5.57101 0C5.33616 0 5.14579 0.191853 5.14579 0.428573H5.14244V3.85715C5.14244 4.09385 4.95059 4.28573 4.71386 4.28573C4.47714 4.28573 4.28529 4.09385 4.28529 3.85715V0.428573H4.28194C4.28194 0.191853 4.09156 0 3.85674 0C3.62189 0 3.43151 0.191853 3.43151 0.428573H3.42816V3.85715C3.42816 4.09385 3.23631 4.28573 2.99959 4.28573C2.76286 4.28573 2.57101 4.09385 2.57101 3.85715V0.428573C2.57101 0.191853 2.38063 0 2.14579 0C1.91094 0 1.72056 0.191853 1.72056 0.428573H1.71387V4.71427C1.71387 5.2415 2.24282 5.6945 2.99959 5.89292V11.1428C2.99959 11.6162 3.38336 12 3.85674 12C4.33009 12 4.71386 11.6162 4.71386 11.1428V5.89292C5.47064 5.6945 5.99959 5.2415 5.99959 4.71427V0.428573H5.99624C5.99624 0.191853 5.80586 0 5.57101 0Z" fill="#E4DED7"/>
<path d="M10.0709 0C8.53236 0 7.28516 2.68628 7.28516 6C7.28516 6.29103 7.29478 6.57718 7.31341 6.85715H8.57086V11.1428C8.57086 11.6162 8.95463 12 9.42801 12C9.90138 12 10.2852 11.6162 10.2852 11.1428V0.0174777C10.2144 0.00589285 10.143 0 10.0709 0Z" fill="#E4DED7"/>
</g>
<defs>
<clipPath id="clip0_939_109497">
<rect width="12" height="12" fill="white"/>
</clipPath>
</defs>
</svg>
