<svg width="10" height="11" viewBox="0 0 10 11" fill="none" xmlns="http://www.w3.org/2000/svg">
<path d="M7.08734 2.29886C6.5132 1.63567 5.86722 1.03826 5.16125 0.517613C5.11398 0.484537 5.05769 0.466797 5 0.466797C4.94231 0.466797 4.88602 0.484537 4.83875 0.517613C4.13278 1.03826 3.4868 1.63567 2.91266 2.29886C1.64094 3.76136 0.96875 5.30027 0.96875 6.74918C0.96875 7.81833 1.39347 8.84369 2.14948 9.5997C2.90548 10.3557 3.93085 10.7804 5 10.7804C6.06915 10.7804 7.09452 10.3557 7.85052 9.5997C8.60653 8.84369 9.03125 7.81833 9.03125 6.74918C9.03125 5.30027 8.35906 3.76136 7.08734 2.29886ZM5 10.2179C4.08037 10.2168 3.19873 9.85099 2.54846 9.20072C1.89818 8.55044 1.53237 7.6688 1.53125 6.74918C1.53125 3.95449 4.29688 1.64308 5 1.10027C5.70312 1.64308 8.46875 3.95449 8.46875 6.74918C8.46763 7.6688 8.10182 8.55044 7.45154 9.20072C6.80127 9.85099 5.91963 10.2168 5 10.2179ZM7.5275 7.17105C7.43371 7.69512 7.18162 8.17788 6.80516 8.55434C6.4287 8.9308 5.94595 9.18289 5.42188 9.27667C5.40636 9.27904 5.39069 9.2803 5.375 9.28043C5.30429 9.2807 5.23606 9.25434 5.18392 9.20657C5.13177 9.15881 5.09953 9.09316 5.09362 9.02269C5.08771 8.95222 5.10856 8.88212 5.15202 8.82633C5.19548 8.77055 5.25835 8.73318 5.32812 8.72167C6.14281 8.5848 6.83422 7.89292 6.9725 7.0773C6.98493 7.0037 7.02609 6.93806 7.08692 6.89481C7.11704 6.87339 7.15109 6.85812 7.18711 6.84986C7.22314 6.8416 7.26043 6.84052 7.29688 6.84667C7.33332 6.85283 7.36819 6.8661 7.3995 6.88574C7.43081 6.90537 7.45795 6.93098 7.47937 6.9611C7.50078 6.99122 7.51606 7.02526 7.52431 7.06129C7.53257 7.09731 7.53366 7.13461 7.5275 7.17105Z" fill="#917B62"/>
</svg>
